<svg width="100%" height="100%" viewBox="0 0 751 751" fill="none" xmlns="http://www.w3.org/2000/svg">
<rect x="0.5" y="0.949005" width="100%" height="100%" fill="white"/>
<g opacity="0.15">
<rect x="540.5" y="277" width="138" height="256" rx="25" transform="rotate(90 540.5 277)" fill="#E4E4E4" stroke="#525252" stroke-width="10"/>
<rect x="545.5" y="317.408" width="58" height="20" rx="10" transform="rotate(90 545.5 317.408)" fill="#525252"/>
</g>
<rect x="200.5" y="99" width="158" height="276" rx="35" fill="#E4E4E4" stroke="white" stroke-width="10"/>
<rect x="210.5" y="109" width="138" height="256" rx="25" fill="#EEEEEE" stroke="#8D8D8D" stroke-width="10"/>
<rect x="250.908" y="104" width="58" height="20" rx="10" fill="#8D8D8D"/>
<path d="M391.93 193.799H415.93C438.021 193.799 455.93 211.708 455.93 233.799V247.799M391.93 193.799L411.93 214M391.93 193.799L411.93 174.045" stroke="#5641FE" stroke-width="12" stroke-linecap="round" stroke-linejoin="round"/>
<path d="M94.5388 524V489.728H121.659V524H114.411V495.776H101.787V524H94.5388ZM153.536 510.848C153.536 513.024 153.232 514.96 152.624 516.656C152.048 518.352 151.2 519.792 150.08 520.976C148.992 522.128 147.664 523.008 146.096 523.616C144.528 524.192 142.752 524.48 140.768 524.48C138.944 524.48 137.248 524.192 135.68 523.616C134.144 523.008 132.816 522.128 131.696 520.976C130.576 519.792 129.696 518.352 129.056 516.656C128.448 514.96 128.144 513.024 128.144 510.848C128.144 507.936 128.656 505.488 129.68 503.504C130.704 501.488 132.176 499.952 134.096 498.896C136.016 497.84 138.288 497.312 140.912 497.312C143.376 497.312 145.552 497.84 147.44 498.896C149.328 499.952 150.816 501.488 151.904 503.504C152.992 505.488 153.536 507.936 153.536 510.848ZM135.44 510.848C135.44 512.576 135.616 514.032 135.968 515.216C136.352 516.368 136.944 517.248 137.744 517.856C138.544 518.432 139.584 518.72 140.864 518.72C142.144 518.72 143.168 518.432 143.936 517.856C144.736 517.248 145.312 516.368 145.664 515.216C146.048 514.032 146.24 512.576 146.24 510.848C146.24 509.12 146.048 507.68 145.664 506.528C145.312 505.376 144.736 504.512 143.936 503.936C143.136 503.36 142.096 503.072 140.816 503.072C138.928 503.072 137.552 503.728 136.688 505.04C135.856 506.32 135.44 508.256 135.44 510.848ZM182.679 504.656C182.679 506.064 182.231 507.264 181.335 508.256C180.471 509.248 179.175 509.888 177.447 510.176V510.368C179.271 510.592 180.727 511.216 181.815 512.24C182.935 513.264 183.495 514.576 183.495 516.176C183.495 517.296 183.271 518.336 182.823 519.296C182.407 520.256 181.735 521.088 180.807 521.792C179.879 522.496 178.679 523.04 177.207 523.424C175.767 523.808 174.007 524 171.927 524H159.447V497.792H171.927C173.975 497.792 175.799 498.016 177.399 498.464C179.031 498.88 180.311 499.584 181.239 500.576C182.199 501.568 182.679 502.928 182.679 504.656ZM176.103 515.792C176.103 514.768 175.703 514.032 174.903 513.584C174.103 513.104 172.903 512.864 171.303 512.864H166.599V519.056H171.447C172.791 519.056 173.895 518.816 174.759 518.336C175.655 517.824 176.103 516.976 176.103 515.792ZM175.431 505.232C175.431 504.4 175.111 503.792 174.471 503.408C173.831 503.024 172.887 502.832 171.639 502.832H166.599V508.016H170.823C172.327 508.016 173.463 507.808 174.231 507.392C175.031 506.944 175.431 506.224 175.431 505.232ZM200.435 497.312C202.867 497.312 204.947 497.776 206.675 498.704C208.435 499.632 209.795 500.976 210.755 502.736C211.715 504.496 212.195 506.656 212.195 509.216V512.672H195.299C195.363 514.688 195.955 516.272 197.075 517.424C198.227 518.576 199.811 519.152 201.827 519.152C203.523 519.152 205.059 518.992 206.435 518.672C207.811 518.32 209.235 517.792 210.707 517.088V522.608C209.427 523.248 208.067 523.712 206.627 524C205.219 524.32 203.507 524.48 201.491 524.48C198.867 524.48 196.547 524 194.531 523.04C192.515 522.048 190.931 520.56 189.779 518.576C188.627 516.592 188.051 514.096 188.051 511.088C188.051 508.016 188.563 505.472 189.587 503.456C190.643 501.408 192.099 499.872 193.955 498.848C195.811 497.824 197.971 497.312 200.435 497.312ZM200.483 502.4C199.107 502.4 197.955 502.848 197.027 503.744C196.131 504.64 195.603 506.032 195.443 507.92H205.475C205.475 506.864 205.283 505.92 204.899 505.088C204.547 504.256 204.003 503.6 203.267 503.12C202.531 502.64 201.603 502.4 200.483 502.4ZM232.586 497.312C235.53 497.312 237.914 498.464 239.738 500.768C241.562 503.04 242.474 506.4 242.474 510.848C242.474 513.824 242.042 516.336 241.178 518.384C240.314 520.4 239.13 521.92 237.626 522.944C236.122 523.968 234.378 524.48 232.394 524.48C231.146 524.48 230.058 524.32 229.13 524C228.234 523.68 227.466 523.264 226.826 522.752C226.186 522.24 225.626 521.696 225.146 521.12H224.762C224.89 521.728 224.986 522.368 225.05 523.04C225.114 523.68 225.146 524.32 225.146 524.96V535.52H217.994V497.792H223.802L224.81 501.2H225.146C225.626 500.496 226.202 499.856 226.874 499.28C227.546 498.672 228.346 498.192 229.274 497.84C230.234 497.488 231.338 497.312 232.586 497.312ZM230.282 503.024C229.034 503.024 228.042 503.28 227.306 503.792C226.57 504.304 226.026 505.088 225.674 506.144C225.354 507.168 225.178 508.464 225.146 510.032V510.8C225.146 512.496 225.306 513.936 225.626 515.12C225.946 516.272 226.49 517.152 227.258 517.76C228.026 518.368 229.066 518.672 230.378 518.672C231.466 518.672 232.362 518.368 233.066 517.76C233.77 517.152 234.298 516.256 234.65 515.072C235.002 513.888 235.178 512.448 235.178 510.752C235.178 508.192 234.778 506.272 233.978 504.992C233.21 503.68 231.978 503.024 230.282 503.024ZM255.521 497.792V507.872H265.505V497.792H272.657V524H265.505V513.2H255.521V524H248.369V497.792H255.521ZM287.062 508.16C287.062 508.704 287.03 509.376 286.966 510.176C286.934 510.976 286.886 511.792 286.822 512.624C286.79 513.456 286.742 514.192 286.678 514.832C286.614 515.472 286.566 515.92 286.534 516.176L298.63 497.792H307.222V524H300.31V513.536C300.31 512.672 300.342 511.728 300.406 510.704C300.47 509.648 300.534 508.672 300.598 507.776C300.694 506.848 300.758 506.144 300.79 505.664L288.742 524H280.15V497.792H287.062V508.16ZM336.393 503.168H327.801V524H320.649V503.168H312.057V497.792H336.393V503.168ZM351.56 497.312C353.992 497.312 356.072 497.776 357.8 498.704C359.56 499.632 360.92 500.976 361.88 502.736C362.84 504.496 363.32 506.656 363.32 509.216V512.672H346.424C346.488 514.688 347.08 516.272 348.2 517.424C349.352 518.576 350.936 519.152 352.952 519.152C354.648 519.152 356.184 518.992 357.56 518.672C358.936 518.32 360.36 517.792 361.832 517.088V522.608C360.552 523.248 359.192 523.712 357.752 524C356.344 524.32 354.632 524.48 352.616 524.48C349.992 524.48 347.672 524 345.656 523.04C343.64 522.048 342.056 520.56 340.904 518.576C339.752 516.592 339.176 514.096 339.176 511.088C339.176 508.016 339.688 505.472 340.712 503.456C341.768 501.408 343.224 499.872 345.08 498.848C346.936 497.824 349.096 497.312 351.56 497.312ZM351.608 502.4C350.232 502.4 349.08 502.848 348.152 503.744C347.256 504.64 346.728 506.032 346.568 507.92H356.6C356.6 506.864 356.408 505.92 356.024 505.088C355.672 504.256 355.128 503.6 354.392 503.12C353.656 502.64 352.728 502.4 351.608 502.4ZM376.531 497.792H384.355L389.299 512.528C389.459 513.008 389.587 513.488 389.683 513.968C389.811 514.448 389.907 514.944 389.971 515.456C390.067 515.968 390.131 516.512 390.163 517.088H390.307C390.403 516.256 390.531 515.472 390.691 514.736C390.883 513.968 391.091 513.232 391.315 512.528L396.163 497.792H403.843L392.755 527.36C392.083 529.152 391.203 530.656 390.115 531.872C389.059 533.088 387.827 534 386.419 534.608C385.011 535.216 383.475 535.52 381.811 535.52C381.011 535.52 380.307 535.472 379.699 535.376C379.123 535.312 378.611 535.232 378.163 535.136V529.472C378.515 529.536 378.931 529.6 379.411 529.664C379.923 529.728 380.451 529.76 380.995 529.76C381.987 529.76 382.835 529.552 383.539 529.136C384.275 528.72 384.883 528.144 385.363 527.408C385.843 526.704 386.227 525.936 386.515 525.104L386.947 523.808L376.531 497.792ZM418.259 524.48C415.667 524.48 413.459 524.016 411.635 523.088C409.811 522.128 408.419 520.656 407.459 518.672C406.499 516.688 406.019 514.144 406.019 511.04C406.019 507.84 406.563 505.232 407.651 503.216C408.739 501.2 410.243 499.712 412.163 498.752C414.115 497.792 416.355 497.312 418.883 497.312C420.675 497.312 422.227 497.488 423.539 497.84C424.883 498.192 426.051 498.608 427.043 499.088L424.931 504.608C423.811 504.16 422.755 503.792 421.763 503.504C420.803 503.216 419.843 503.072 418.883 503.072C417.635 503.072 416.595 503.376 415.763 503.984C414.931 504.56 414.307 505.44 413.891 506.624C413.507 507.776 413.315 509.232 413.315 510.992C413.315 512.72 413.523 514.16 413.939 515.312C414.387 516.432 415.027 517.28 415.859 517.856C416.691 518.4 417.699 518.672 418.883 518.672C420.387 518.672 421.715 518.48 422.867 518.096C424.019 517.68 425.139 517.12 426.227 516.416V522.512C425.139 523.216 423.987 523.712 422.771 524C421.587 524.32 420.083 524.48 418.259 524.48ZM453.956 503.168H445.364V524H438.212V503.168H429.62V497.792H453.956V503.168ZM473.383 497.312C476.327 497.312 478.711 498.464 480.535 500.768C482.359 503.04 483.271 506.4 483.271 510.848C483.271 513.824 482.839 516.336 481.975 518.384C481.111 520.4 479.927 521.92 478.423 522.944C476.919 523.968 475.175 524.48 473.191 524.48C471.943 524.48 470.855 524.32 469.927 524C469.031 523.68 468.263 523.264 467.623 522.752C466.983 522.24 466.423 521.696 465.943 521.12H465.559C465.687 521.728 465.783 522.368 465.847 523.04C465.911 523.68 465.943 524.32 465.943 524.96V535.52H458.791V497.792H464.599L465.607 501.2H465.943C466.423 500.496 466.999 499.856 467.671 499.28C468.343 498.672 469.143 498.192 470.071 497.84C471.031 497.488 472.135 497.312 473.383 497.312ZM471.079 503.024C469.831 503.024 468.839 503.28 468.103 503.792C467.367 504.304 466.823 505.088 466.471 506.144C466.151 507.168 465.975 508.464 465.943 510.032V510.8C465.943 512.496 466.103 513.936 466.423 515.12C466.743 516.272 467.287 517.152 468.055 517.76C468.823 518.368 469.863 518.672 471.175 518.672C472.263 518.672 473.159 518.368 473.863 517.76C474.567 517.152 475.095 516.256 475.447 515.072C475.799 513.888 475.975 512.448 475.975 510.752C475.975 508.192 475.575 506.272 474.775 504.992C474.007 503.68 472.775 503.024 471.079 503.024ZM512.974 510.848C512.974 513.024 512.67 514.96 512.062 516.656C511.486 518.352 510.638 519.792 509.518 520.976C508.43 522.128 507.102 523.008 505.534 523.616C503.966 524.192 502.19 524.48 500.206 524.48C498.382 524.48 496.686 524.192 495.118 523.616C493.582 523.008 492.254 522.128 491.134 520.976C490.014 519.792 489.134 518.352 488.494 516.656C487.886 514.96 487.582 513.024 487.582 510.848C487.582 507.936 488.094 505.488 489.118 503.504C490.142 501.488 491.614 499.952 493.534 498.896C495.454 497.84 497.726 497.312 500.35 497.312C502.814 497.312 504.99 497.84 506.878 498.896C508.766 499.952 510.254 501.488 511.342 503.504C512.43 505.488 512.974 507.936 512.974 510.848ZM494.878 510.848C494.878 512.576 495.054 514.032 495.406 515.216C495.79 516.368 496.382 517.248 497.182 517.856C497.982 518.432 499.022 518.72 500.302 518.72C501.582 518.72 502.606 518.432 503.374 517.856C504.174 517.248 504.75 516.368 505.102 515.216C505.486 514.032 505.678 512.576 505.678 510.848C505.678 509.12 505.486 507.68 505.102 506.528C504.75 505.376 504.174 504.512 503.374 503.936C502.574 503.36 501.534 503.072 500.254 503.072C498.366 503.072 496.99 503.728 496.126 505.04C495.294 506.32 494.878 508.256 494.878 510.848ZM543.989 486.512C543.829 488.176 543.365 489.648 542.597 490.928C541.829 492.176 540.629 493.152 538.997 493.856C537.365 494.56 535.173 494.912 532.421 494.912C529.605 494.912 527.397 494.576 525.797 493.904C524.229 493.2 523.109 492.224 522.437 490.976C521.765 489.728 521.365 488.24 521.237 486.512H527.621C527.781 488.272 528.229 489.44 528.965 490.016C529.701 490.592 530.901 490.88 532.565 490.88C533.941 490.88 535.061 490.576 535.925 489.968C536.821 489.328 537.349 488.176 537.509 486.512H543.989ZM525.797 508.16C525.797 508.704 525.765 509.376 525.701 510.176C525.669 510.976 525.621 511.792 525.557 512.624C525.525 513.456 525.477 514.192 525.413 514.832C525.349 515.472 525.301 515.92 525.269 516.176L537.365 497.792H545.957V524H539.045V513.536C539.045 512.672 539.077 511.728 539.141 510.704C539.205 509.648 539.269 508.672 539.333 507.776C539.429 506.848 539.493 506.144 539.525 505.664L527.477 524H518.885V497.792H525.797V508.16ZM564.088 524.48C561.496 524.48 559.288 524.016 557.464 523.088C555.64 522.128 554.248 520.656 553.288 518.672C552.328 516.688 551.848 514.144 551.848 511.04C551.848 507.84 552.392 505.232 553.48 503.216C554.568 501.2 556.072 499.712 557.992 498.752C559.944 497.792 562.184 497.312 564.712 497.312C566.504 497.312 568.056 497.488 569.368 497.84C570.712 498.192 571.88 498.608 572.872 499.088L570.76 504.608C569.64 504.16 568.584 503.792 567.592 503.504C566.632 503.216 565.672 503.072 564.712 503.072C563.464 503.072 562.424 503.376 561.592 503.984C560.76 504.56 560.136 505.44 559.72 506.624C559.336 507.776 559.144 509.232 559.144 510.992C559.144 512.72 559.352 514.16 559.768 515.312C560.216 516.432 560.856 517.28 561.688 517.856C562.52 518.4 563.528 518.672 564.712 518.672C566.216 518.672 567.544 518.48 568.696 518.096C569.848 517.68 570.968 517.12 572.056 516.416V522.512C570.968 523.216 569.816 523.712 568.6 524C567.416 524.32 565.912 524.48 564.088 524.48ZM599.784 503.168H591.192V524H584.04V503.168H575.448V497.792H599.784V503.168ZM627.851 504.656C627.851 506.064 627.403 507.264 626.507 508.256C625.643 509.248 624.347 509.888 622.619 510.176V510.368C624.443 510.592 625.899 511.216 626.987 512.24C628.107 513.264 628.667 514.576 628.667 516.176C628.667 517.296 628.443 518.336 627.995 519.296C627.579 520.256 626.907 521.088 625.979 521.792C625.051 522.496 623.851 523.04 622.379 523.424C620.939 523.808 619.179 524 617.099 524H604.619V497.792H617.099C619.147 497.792 620.971 498.016 622.571 498.464C624.203 498.88 625.483 499.584 626.411 500.576C627.371 501.568 627.851 502.928 627.851 504.656ZM621.275 515.792C621.275 514.768 620.875 514.032 620.075 513.584C619.275 513.104 618.075 512.864 616.475 512.864H611.771V519.056H616.619C617.963 519.056 619.067 518.816 619.931 518.336C620.827 517.824 621.275 516.976 621.275 515.792ZM620.603 505.232C620.603 504.4 620.283 503.792 619.643 503.408C619.003 503.024 618.059 502.832 616.811 502.832H611.771V508.016H615.995C617.499 508.016 618.635 507.808 619.403 507.392C620.203 506.944 620.603 506.224 620.603 505.232ZM658.615 510.848C658.615 513.024 658.311 514.96 657.703 516.656C657.127 518.352 656.279 519.792 655.159 520.976C654.071 522.128 652.743 523.008 651.175 523.616C649.607 524.192 647.831 524.48 645.847 524.48C644.023 524.48 642.327 524.192 640.759 523.616C639.223 523.008 637.895 522.128 636.775 520.976C635.655 519.792 634.775 518.352 634.135 516.656C633.527 514.96 633.223 513.024 633.223 510.848C633.223 507.936 633.735 505.488 634.759 503.504C635.783 501.488 637.255 499.952 639.175 498.896C641.095 497.84 643.367 497.312 645.991 497.312C648.455 497.312 650.631 497.84 652.519 498.896C654.407 499.952 655.895 501.488 656.983 503.504C658.071 505.488 658.615 507.936 658.615 510.848ZM640.519 510.848C640.519 512.576 640.695 514.032 641.047 515.216C641.431 516.368 642.023 517.248 642.823 517.856C643.623 518.432 644.663 518.72 645.943 518.72C647.223 518.72 648.247 518.432 649.015 517.856C649.815 517.248 650.391 516.368 650.743 515.216C651.127 514.032 651.319 512.576 651.319 510.848C651.319 509.12 651.127 507.68 650.743 506.528C650.391 505.376 649.815 504.512 649.015 503.936C648.215 503.36 647.175 503.072 645.895 503.072C644.007 503.072 642.631 503.728 641.767 505.04C640.935 506.32 640.519 508.256 640.519 510.848ZM80.1673 554.152H82.8553V566.696C82.8553 567.229 82.8446 567.816 82.8233 568.456C82.8233 569.075 82.8126 569.693 82.7913 570.312C82.7699 570.931 82.7379 571.485 82.6953 571.976C82.6739 572.445 82.6526 572.808 82.6313 573.064H82.7593L95.3353 554.152H98.5353V577H95.8472V564.584C95.8472 564.008 95.8579 563.389 95.8793 562.728C95.9006 562.045 95.9219 561.395 95.9433 560.776C95.9859 560.136 96.0179 559.571 96.0393 559.08C96.0606 558.589 96.0819 558.227 96.1033 557.992H95.9753L83.3673 577H80.1673V554.152ZM114.778 559.848V562.216H107.13V577H104.314V559.848H114.778ZM126.318 559.528C128.43 559.528 130.126 560.264 131.406 561.736C132.707 563.208 133.358 565.427 133.358 568.392C133.358 570.333 133.059 571.976 132.462 573.32C131.885 574.643 131.064 575.645 129.998 576.328C128.952 576.989 127.715 577.32 126.286 577.32C125.411 577.32 124.632 577.203 123.95 576.968C123.267 576.733 122.68 576.435 122.19 576.072C121.72 575.688 121.315 575.272 120.974 574.824H120.782C120.824 575.187 120.867 575.645 120.91 576.2C120.952 576.755 120.974 577.235 120.974 577.64V584.68H118.158V559.848H120.462L120.846 562.184H120.974C121.315 561.693 121.72 561.245 122.19 560.84C122.68 560.435 123.256 560.115 123.918 559.88C124.6 559.645 125.4 559.528 126.318 559.528ZM125.806 561.896C124.654 561.896 123.726 562.12 123.022 562.568C122.318 562.995 121.806 563.645 121.486 564.52C121.166 565.395 120.995 566.504 120.974 567.848V568.392C120.974 569.8 121.123 570.995 121.422 571.976C121.72 572.957 122.222 573.704 122.926 574.216C123.651 574.728 124.632 574.984 125.87 574.984C126.915 574.984 127.768 574.696 128.43 574.12C129.112 573.544 129.614 572.765 129.934 571.784C130.275 570.781 130.446 569.64 130.446 568.36C130.446 566.397 130.062 564.829 129.294 563.656C128.547 562.483 127.384 561.896 125.806 561.896ZM144.341 559.56C146.432 559.56 147.978 560.019 148.981 560.936C149.984 561.853 150.485 563.315 150.485 565.32V577H148.437L147.893 574.568H147.765C147.274 575.187 146.762 575.709 146.229 576.136C145.717 576.541 145.12 576.84 144.437 577.032C143.776 577.224 142.965 577.32 142.005 577.32C140.981 577.32 140.053 577.139 139.221 576.776C138.41 576.413 137.77 575.859 137.301 575.112C136.832 574.344 136.597 573.384 136.597 572.232C136.597 570.525 137.269 569.213 138.613 568.296C139.957 567.357 142.026 566.845 144.821 566.76L147.733 566.664V565.64C147.733 564.211 147.424 563.219 146.805 562.664C146.186 562.109 145.312 561.832 144.181 561.832C143.285 561.832 142.432 561.971 141.621 562.248C140.81 562.504 140.053 562.803 139.349 563.144L138.485 561.032C139.232 560.627 140.117 560.285 141.141 560.008C142.165 559.709 143.232 559.56 144.341 559.56ZM145.173 568.712C143.04 568.797 141.557 569.139 140.725 569.736C139.914 570.333 139.509 571.176 139.509 572.264C139.509 573.224 139.797 573.928 140.373 574.376C140.97 574.824 141.728 575.048 142.645 575.048C144.096 575.048 145.301 574.653 146.261 573.864C147.221 573.053 147.701 571.816 147.701 570.152V568.616L145.173 568.712ZM171.036 559.528C173.148 559.528 174.844 560.264 176.124 561.736C177.426 563.208 178.076 565.427 178.076 568.392C178.076 570.333 177.778 571.976 177.18 573.32C176.604 574.643 175.783 575.645 174.716 576.328C173.671 576.989 172.434 577.32 171.004 577.32C170.13 577.32 169.351 577.203 168.668 576.968C167.986 576.733 167.399 576.435 166.908 576.072C166.439 575.688 166.034 575.272 165.692 574.824H165.5C165.543 575.187 165.586 575.645 165.628 576.2C165.671 576.755 165.692 577.235 165.692 577.64V584.68H162.876V559.848H165.18L165.564 562.184H165.692C166.034 561.693 166.439 561.245 166.908 560.84C167.399 560.435 167.975 560.115 168.636 559.88C169.319 559.645 170.119 559.528 171.036 559.528ZM170.524 561.896C169.372 561.896 168.444 562.12 167.74 562.568C167.036 562.995 166.524 563.645 166.204 564.52C165.884 565.395 165.714 566.504 165.692 567.848V568.392C165.692 569.8 165.842 570.995 166.14 571.976C166.439 572.957 166.94 573.704 167.644 574.216C168.37 574.728 169.351 574.984 170.588 574.984C171.634 574.984 172.487 574.696 173.148 574.12C173.831 573.544 174.332 572.765 174.652 571.784C174.994 570.781 175.164 569.64 175.164 568.36C175.164 566.397 174.78 564.829 174.012 563.656C173.266 562.483 172.103 561.896 170.524 561.896ZM189.06 559.56C191.15 559.56 192.697 560.019 193.7 560.936C194.702 561.853 195.204 563.315 195.204 565.32V577H193.156L192.612 574.568H192.484C191.993 575.187 191.481 575.709 190.948 576.136C190.436 576.541 189.838 576.84 189.156 577.032C188.494 577.224 187.684 577.32 186.724 577.32C185.7 577.32 184.772 577.139 183.94 576.776C183.129 576.413 182.489 575.859 182.02 575.112C181.55 574.344 181.316 573.384 181.316 572.232C181.316 570.525 181.988 569.213 183.332 568.296C184.676 567.357 186.745 566.845 189.54 566.76L192.452 566.664V565.64C192.452 564.211 192.142 563.219 191.524 562.664C190.905 562.109 190.03 561.832 188.9 561.832C188.004 561.832 187.15 561.971 186.34 562.248C185.529 562.504 184.772 562.803 184.068 563.144L183.204 561.032C183.95 560.627 184.836 560.285 185.86 560.008C186.884 559.709 187.95 559.56 189.06 559.56ZM189.892 568.712C187.758 568.797 186.276 569.139 185.444 569.736C184.633 570.333 184.228 571.176 184.228 572.264C184.228 573.224 184.516 573.928 185.092 574.376C185.689 574.824 186.446 575.048 187.364 575.048C188.814 575.048 190.02 574.653 190.98 573.864C191.94 573.053 192.42 571.816 192.42 570.152V568.616L189.892 568.712ZM199.605 566.696C199.605 564.2 199.851 562.077 200.341 560.328C200.853 558.557 201.632 557.149 202.677 556.104C203.744 555.037 205.109 554.323 206.773 553.96C208.16 553.661 209.515 553.395 210.837 553.16C212.16 552.925 213.397 552.712 214.549 552.52L215.029 554.984C214.475 555.069 213.856 555.176 213.173 555.304C212.491 555.411 211.797 555.528 211.093 555.656C210.389 555.763 209.707 555.88 209.045 556.008C208.405 556.115 207.84 556.221 207.349 556.328C206.645 556.477 206.016 556.733 205.461 557.096C204.907 557.437 204.427 557.907 204.021 558.504C203.637 559.101 203.328 559.837 203.093 560.712C202.859 561.587 202.72 562.621 202.677 563.816H202.869C203.168 563.411 203.573 562.995 204.085 562.568C204.619 562.141 205.248 561.779 205.973 561.48C206.72 561.181 207.563 561.032 208.501 561.032C209.995 561.032 211.232 561.363 212.213 562.024C213.216 562.664 213.963 563.56 214.453 564.712C214.965 565.864 215.221 567.208 215.221 568.744C215.221 570.643 214.891 572.232 214.229 573.512C213.568 574.792 212.651 575.752 211.477 576.392C210.304 577.011 208.939 577.32 207.381 577.32C206.208 577.32 205.141 577.096 204.181 576.648C203.221 576.179 202.4 575.496 201.717 574.6C201.035 573.704 200.512 572.595 200.149 571.272C199.787 569.949 199.605 568.424 199.605 566.696ZM207.605 574.984C208.544 574.984 209.355 574.792 210.037 574.408C210.741 574.024 211.285 573.395 211.669 572.52C212.053 571.645 212.245 570.483 212.245 569.032C212.245 567.283 211.915 565.907 211.253 564.904C210.613 563.88 209.547 563.368 208.053 563.368C207.115 563.368 206.261 563.581 205.493 564.008C204.725 564.413 204.085 564.883 203.573 565.416C203.061 565.949 202.699 566.397 202.485 566.76C202.485 567.805 202.56 568.819 202.709 569.8C202.859 570.781 203.115 571.667 203.477 572.456C203.861 573.224 204.384 573.843 205.045 574.312C205.728 574.76 206.581 574.984 207.605 574.984ZM234.569 568.392C234.569 569.821 234.378 571.091 233.994 572.2C233.631 573.288 233.098 574.216 232.394 574.984C231.711 575.752 230.868 576.339 229.866 576.744C228.884 577.128 227.786 577.32 226.57 577.32C225.439 577.32 224.394 577.128 223.434 576.744C222.474 576.339 221.642 575.752 220.938 574.984C220.234 574.216 219.679 573.288 219.274 572.2C218.89 571.091 218.698 569.821 218.698 568.392C218.698 566.493 219.018 564.893 219.658 563.592C220.298 562.269 221.215 561.267 222.41 560.584C223.604 559.88 225.023 559.528 226.666 559.528C228.223 559.528 229.588 559.88 230.762 560.584C231.956 561.267 232.884 562.269 233.546 563.592C234.228 564.893 234.569 566.493 234.569 568.392ZM221.61 568.392C221.61 569.736 221.78 570.909 222.122 571.912C222.484 572.893 223.039 573.651 223.786 574.184C224.532 574.717 225.482 574.984 226.634 574.984C227.786 574.984 228.735 574.717 229.482 574.184C230.228 573.651 230.772 572.893 231.114 571.912C231.476 570.909 231.658 569.736 231.658 568.392C231.658 567.027 231.476 565.864 231.114 564.904C230.751 563.944 230.196 563.208 229.45 562.696C228.724 562.163 227.775 561.896 226.602 561.896C224.852 561.896 223.583 562.472 222.794 563.624C222.004 564.776 221.61 566.365 221.61 568.392ZM250.56 562.216H244.96V577H242.176V562.216H236.64V559.848H250.56V562.216ZM260.435 559.56C262.525 559.56 264.072 560.019 265.075 560.936C266.077 561.853 266.579 563.315 266.579 565.32V577H264.531L263.987 574.568H263.859C263.368 575.187 262.856 575.709 262.323 576.136C261.811 576.541 261.213 576.84 260.531 577.032C259.869 577.224 259.059 577.32 258.099 577.32C257.075 577.32 256.147 577.139 255.315 576.776C254.504 576.413 253.864 575.859 253.395 575.112C252.925 574.344 252.691 573.384 252.691 572.232C252.691 570.525 253.363 569.213 254.707 568.296C256.051 567.357 258.12 566.845 260.915 566.76L263.827 566.664V565.64C263.827 564.211 263.517 563.219 262.899 562.664C262.28 562.109 261.405 561.832 260.275 561.832C259.379 561.832 258.525 561.971 257.715 562.248C256.904 562.504 256.147 562.803 255.443 563.144L254.579 561.032C255.325 560.627 256.211 560.285 257.235 560.008C258.259 559.709 259.325 559.56 260.435 559.56ZM261.267 568.712C259.133 568.797 257.651 569.139 256.819 569.736C256.008 570.333 255.603 571.176 255.603 572.264C255.603 573.224 255.891 573.928 256.467 574.376C257.064 574.824 257.821 575.048 258.739 575.048C260.189 575.048 261.395 574.653 262.355 573.864C263.315 573.053 263.795 571.816 263.795 570.152V568.616L261.267 568.712ZM278.5 559.528C279.972 559.528 281.231 559.848 282.276 560.488C283.343 561.128 284.154 562.035 284.708 563.208C285.284 564.36 285.572 565.715 285.572 567.272V568.968H273.828C273.871 570.909 274.362 572.392 275.3 573.416C276.26 574.419 277.594 574.92 279.3 574.92C280.388 574.92 281.348 574.824 282.18 574.632C283.034 574.419 283.908 574.12 284.804 573.736V576.2C283.93 576.584 283.066 576.861 282.212 577.032C281.359 577.224 280.346 577.32 279.172 577.32C277.551 577.32 276.111 576.989 274.852 576.328C273.615 575.667 272.644 574.685 271.94 573.384C271.258 572.061 270.916 570.451 270.916 568.552C270.916 566.675 271.226 565.064 271.844 563.72C272.484 562.376 273.37 561.341 274.5 560.616C275.652 559.891 276.986 559.528 278.5 559.528ZM278.468 561.832C277.124 561.832 276.058 562.269 275.268 563.144C274.5 563.997 274.042 565.192 273.892 566.728H282.628C282.628 565.747 282.479 564.893 282.18 564.168C281.882 563.443 281.423 562.877 280.804 562.472C280.207 562.045 279.428 561.832 278.468 561.832ZM301.779 562.216H296.179V577H293.395V562.216H287.859V559.848H301.779V562.216ZM324.091 562.216H318.491V577H315.707V562.216H310.171V559.848H324.091V562.216ZM342.069 568.392C342.069 569.821 341.878 571.091 341.494 572.2C341.131 573.288 340.598 574.216 339.894 574.984C339.211 575.752 338.368 576.339 337.366 576.744C336.384 577.128 335.286 577.32 334.07 577.32C332.939 577.32 331.894 577.128 330.934 576.744C329.974 576.339 329.142 575.752 328.438 574.984C327.734 574.216 327.179 573.288 326.774 572.2C326.39 571.091 326.198 569.821 326.198 568.392C326.198 566.493 326.518 564.893 327.158 563.592C327.798 562.269 328.715 561.267 329.91 560.584C331.104 559.88 332.523 559.528 334.166 559.528C335.723 559.528 337.088 559.88 338.262 560.584C339.456 561.267 340.384 562.269 341.046 563.592C341.728 564.893 342.069 566.493 342.069 568.392ZM329.11 568.392C329.11 569.736 329.28 570.909 329.622 571.912C329.984 572.893 330.539 573.651 331.286 574.184C332.032 574.717 332.982 574.984 334.134 574.984C335.286 574.984 336.235 574.717 336.982 574.184C337.728 573.651 338.272 572.893 338.614 571.912C338.976 570.909 339.158 569.736 339.158 568.392C339.158 567.027 338.976 565.864 338.614 564.904C338.251 563.944 337.696 563.208 336.95 562.696C336.224 562.163 335.275 561.896 334.102 561.896C332.352 561.896 331.083 562.472 330.294 563.624C329.504 564.776 329.11 566.365 329.11 568.392ZM359.589 577H356.741V562.184H351.685C351.471 564.893 351.205 567.208 350.885 569.128C350.565 571.027 350.159 572.573 349.669 573.768C349.178 574.963 348.591 575.837 347.909 576.392C347.226 576.947 346.426 577.224 345.509 577.224C345.231 577.224 344.954 577.203 344.677 577.16C344.421 577.139 344.207 577.085 344.037 577V574.888C344.165 574.931 344.303 574.963 344.453 574.984C344.602 575.005 344.751 575.016 344.901 575.016C345.37 575.016 345.797 574.824 346.181 574.44C346.565 574.056 346.906 573.469 347.205 572.68C347.525 571.891 347.813 570.899 348.069 569.704C348.325 568.488 348.549 567.059 348.741 565.416C348.933 563.773 349.103 561.917 349.253 559.848H359.589V577ZM372.937 566.888C374.43 566.888 375.667 567.069 376.649 567.432C377.63 567.795 378.366 568.339 378.857 569.064C379.369 569.768 379.625 570.664 379.625 571.752C379.625 572.819 379.379 573.747 378.889 574.536C378.419 575.325 377.683 575.933 376.681 576.36C375.678 576.787 374.387 577 372.809 577H365.033V559.848H367.849V566.888H372.937ZM376.809 571.912C376.809 570.867 376.435 570.163 375.689 569.8C374.963 569.416 373.939 569.224 372.617 569.224H367.849V574.728H372.681C373.875 574.728 374.857 574.515 375.625 574.088C376.414 573.661 376.809 572.936 376.809 571.912ZM394.177 559.848H397.249L389.921 568.104L397.857 577H394.593L386.849 568.296V577H384.033V559.848H386.849V568.168L394.177 559.848ZM415.257 568.392C415.257 569.821 415.065 571.091 414.681 572.2C414.318 573.288 413.785 574.216 413.081 574.984C412.398 575.752 411.556 576.339 410.553 576.744C409.572 577.128 408.473 577.32 407.257 577.32C406.126 577.32 405.081 577.128 404.121 576.744C403.161 576.339 402.329 575.752 401.625 574.984C400.921 574.216 400.366 573.288 399.961 572.2C399.577 571.091 399.385 569.821 399.385 568.392C399.385 566.493 399.705 564.893 400.345 563.592C400.985 562.269 401.902 561.267 403.097 560.584C404.292 559.88 405.71 559.528 407.353 559.528C408.91 559.528 410.276 559.88 411.449 560.584C412.644 561.267 413.572 562.269 414.233 563.592C414.916 564.893 415.257 566.493 415.257 568.392ZM402.297 568.392C402.297 569.736 402.468 570.909 402.809 571.912C403.172 572.893 403.726 573.651 404.473 574.184C405.22 574.717 406.169 574.984 407.321 574.984C408.473 574.984 409.422 574.717 410.169 574.184C410.916 573.651 411.46 572.893 411.801 571.912C412.164 570.909 412.345 569.736 412.345 568.392C412.345 567.027 412.164 565.864 411.801 564.904C411.438 563.944 410.884 563.208 410.137 562.696C409.412 562.163 408.462 561.896 407.289 561.896C405.54 561.896 404.27 562.472 403.481 563.624C402.692 564.776 402.297 566.365 402.297 568.392ZM440.606 564.168C440.606 565.235 440.286 566.067 439.646 566.664C439.006 567.261 438.184 567.667 437.182 567.88V568.008C438.248 568.157 439.176 568.541 439.966 569.16C440.755 569.757 441.15 570.696 441.15 571.976C441.15 572.701 441.011 573.373 440.734 573.992C440.478 574.611 440.072 575.144 439.518 575.592C438.963 576.04 438.248 576.392 437.374 576.648C436.499 576.883 435.443 577 434.206 577H426.814V559.848H434.174C435.39 559.848 436.478 559.987 437.438 560.264C438.419 560.52 439.187 560.968 439.742 561.608C440.318 562.227 440.606 563.08 440.606 564.168ZM438.238 571.976C438.238 570.995 437.864 570.291 437.118 569.864C436.371 569.437 435.272 569.224 433.822 569.224H429.63V574.728H433.886C435.294 574.728 436.371 574.525 437.118 574.12C437.864 573.693 438.238 572.979 438.238 571.976ZM437.758 564.52C437.758 563.709 437.459 563.123 436.862 562.76C436.286 562.376 435.336 562.184 434.014 562.184H429.63V566.888H433.502C434.888 566.888 435.944 566.696 436.67 566.312C437.395 565.928 437.758 565.331 437.758 564.52ZM466.137 564.168C466.137 565.235 465.817 566.067 465.177 566.664C464.537 567.261 463.716 567.667 462.713 567.88V568.008C463.78 568.157 464.708 568.541 465.497 569.16C466.286 569.757 466.681 570.696 466.681 571.976C466.681 572.701 466.542 573.373 466.265 573.992C466.009 574.611 465.604 575.144 465.049 575.592C464.494 576.04 463.78 576.392 462.905 576.648C462.03 576.883 460.974 577 459.737 577H452.345V559.848H459.705C460.921 559.848 462.009 559.987 462.969 560.264C463.95 560.52 464.718 560.968 465.273 561.608C465.849 562.227 466.137 563.08 466.137 564.168ZM463.769 571.976C463.769 570.995 463.396 570.291 462.649 569.864C461.902 569.437 460.804 569.224 459.353 569.224H455.161V574.728H459.417C460.825 574.728 461.902 574.525 462.649 574.12C463.396 573.693 463.769 572.979 463.769 571.976ZM463.289 564.52C463.289 563.709 462.99 563.123 462.393 562.76C461.817 562.376 460.868 562.184 459.545 562.184H455.161V566.888H459.033C460.42 566.888 461.476 566.696 462.201 566.312C462.926 565.928 463.289 565.331 463.289 564.52ZM477.407 559.528C478.879 559.528 480.137 559.848 481.183 560.488C482.249 561.128 483.06 562.035 483.615 563.208C484.191 564.36 484.479 565.715 484.479 567.272V568.968H472.735C472.777 570.909 473.268 572.392 474.207 573.416C475.167 574.419 476.5 574.92 478.207 574.92C479.295 574.92 480.255 574.824 481.087 574.632C481.94 574.419 482.815 574.12 483.711 573.736V576.2C482.836 576.584 481.972 576.861 481.119 577.032C480.265 577.224 479.252 577.32 478.079 577.32C476.457 577.32 475.017 576.989 473.759 576.328C472.521 575.667 471.551 574.685 470.847 573.384C470.164 572.061 469.823 570.451 469.823 568.552C469.823 566.675 470.132 565.064 470.751 563.72C471.391 562.376 472.276 561.341 473.407 560.616C474.559 559.891 475.892 559.528 477.407 559.528ZM477.375 561.832C476.031 561.832 474.964 562.269 474.175 563.144C473.407 563.997 472.948 565.192 472.799 566.728H481.535C481.535 565.747 481.385 564.893 481.087 564.168C480.788 563.443 480.329 562.877 479.711 562.472C479.113 562.045 478.335 561.832 477.375 561.832ZM497.005 559.528C499.117 559.528 500.813 560.264 502.093 561.736C503.394 563.208 504.045 565.427 504.045 568.392C504.045 570.333 503.746 571.976 503.149 573.32C502.573 574.643 501.752 575.645 500.685 576.328C499.64 576.989 498.402 577.32 496.973 577.32C496.098 577.32 495.32 577.203 494.637 576.968C493.954 576.733 493.368 576.435 492.877 576.072C492.408 575.688 492.002 575.272 491.661 574.824H491.469C491.512 575.187 491.554 575.645 491.597 576.2C491.64 576.755 491.661 577.235 491.661 577.64V584.68H488.845V559.848H491.149L491.533 562.184H491.661C492.002 561.693 492.408 561.245 492.877 560.84C493.368 560.435 493.944 560.115 494.605 559.88C495.288 559.645 496.088 559.528 497.005 559.528ZM496.493 561.896C495.341 561.896 494.413 562.12 493.709 562.568C493.005 562.995 492.493 563.645 492.173 564.52C491.853 565.395 491.682 566.504 491.661 567.848V568.392C491.661 569.8 491.81 570.995 492.109 571.976C492.408 572.957 492.909 573.704 493.613 574.216C494.338 574.728 495.32 574.984 496.557 574.984C497.602 574.984 498.456 574.696 499.117 574.12C499.8 573.544 500.301 572.765 500.621 571.784C500.962 570.781 501.133 569.64 501.133 568.36C501.133 566.397 500.749 564.829 499.981 563.656C499.234 562.483 498.072 561.896 496.493 561.896ZM520.06 562.216H514.46V577H511.676V562.216H506.14V559.848H520.06V562.216ZM526.095 570.312C526.095 570.504 526.084 570.781 526.063 571.144C526.063 571.485 526.052 571.859 526.031 572.264C526.009 572.648 525.988 573.021 525.967 573.384C525.945 573.725 525.924 574.003 525.903 574.216L535.087 559.848H538.543V577H535.919V566.888C535.919 566.547 535.919 566.099 535.919 565.544C535.94 564.989 535.961 564.445 535.983 563.912C536.004 563.357 536.025 562.941 536.047 562.664L526.927 577H523.439V559.848H526.095V570.312ZM554.145 559.848H557.217L549.889 568.104L557.825 577H554.561L546.817 568.296V577H544.001V559.848H546.817V568.168L554.145 559.848ZM567.435 559.56C569.525 559.56 571.072 560.019 572.075 560.936C573.077 561.853 573.579 563.315 573.579 565.32V577H571.531L570.987 574.568H570.859C570.368 575.187 569.856 575.709 569.323 576.136C568.811 576.541 568.213 576.84 567.531 577.032C566.869 577.224 566.059 577.32 565.099 577.32C564.075 577.32 563.147 577.139 562.315 576.776C561.504 576.413 560.864 575.859 560.395 575.112C559.925 574.344 559.691 573.384 559.691 572.232C559.691 570.525 560.363 569.213 561.707 568.296C563.051 567.357 565.12 566.845 567.915 566.76L570.827 566.664V565.64C570.827 564.211 570.517 563.219 569.899 562.664C569.28 562.109 568.405 561.832 567.275 561.832C566.379 561.832 565.525 561.971 564.715 562.248C563.904 562.504 563.147 562.803 562.443 563.144L561.579 561.032C562.325 560.627 563.211 560.285 564.235 560.008C565.259 559.709 566.325 559.56 567.435 559.56ZM568.267 568.712C566.133 568.797 564.651 569.139 563.819 569.736C563.008 570.333 562.603 571.176 562.603 572.264C562.603 573.224 562.891 573.928 563.467 574.376C564.064 574.824 564.821 575.048 565.739 575.048C567.189 575.048 568.395 574.653 569.355 573.864C570.315 573.053 570.795 571.816 570.795 570.152V568.616L568.267 568.712ZM591.932 577H589.084V562.184H584.028C583.815 564.893 583.548 567.208 583.228 569.128C582.908 571.027 582.503 572.573 582.012 573.768C581.522 574.963 580.935 575.837 580.252 576.392C579.57 576.947 578.77 577.224 577.852 577.224C577.575 577.224 577.298 577.203 577.02 577.16C576.764 577.139 576.551 577.085 576.38 577V574.888C576.508 574.931 576.647 574.963 576.796 574.984C576.946 575.005 577.095 575.016 577.244 575.016C577.714 575.016 578.14 574.824 578.524 574.44C578.908 574.056 579.25 573.469 579.548 572.68C579.868 571.891 580.156 570.899 580.412 569.704C580.668 568.488 580.892 567.059 581.084 565.416C581.276 563.773 581.447 561.917 581.596 559.848H591.932V577ZM605.28 566.888C606.774 566.888 608.011 567.069 608.992 567.432C609.974 567.795 610.71 568.339 611.2 569.064C611.712 569.768 611.968 570.664 611.968 571.752C611.968 572.819 611.723 573.747 611.232 574.536C610.763 575.325 610.027 575.933 609.024 576.36C608.022 576.787 606.731 577 605.152 577H597.376V559.848H600.192V566.888H605.28ZM609.152 571.912C609.152 570.867 608.779 570.163 608.032 569.8C607.307 569.416 606.283 569.224 604.96 569.224H600.192V574.728H605.024C606.219 574.728 607.2 574.515 607.968 574.088C608.758 573.661 609.152 572.936 609.152 571.912ZM619.192 559.848V566.984H628.504V559.848H631.32V577H628.504V569.352H619.192V577H616.376V559.848H619.192ZM651.663 568.392C651.663 569.821 651.471 571.091 651.087 572.2C650.725 573.288 650.191 574.216 649.487 574.984C648.805 575.752 647.962 576.339 646.959 576.744C645.978 577.128 644.879 577.32 643.663 577.32C642.533 577.32 641.487 577.128 640.527 576.744C639.567 576.339 638.735 575.752 638.031 574.984C637.327 574.216 636.773 573.288 636.367 572.2C635.983 571.091 635.791 569.821 635.791 568.392C635.791 566.493 636.111 564.893 636.751 563.592C637.391 562.269 638.309 561.267 639.503 560.584C640.698 559.88 642.117 559.528 643.759 559.528C645.317 559.528 646.682 559.88 647.855 560.584C649.05 561.267 649.978 562.269 650.639 563.592C651.322 564.893 651.663 566.493 651.663 568.392ZM638.703 568.392C638.703 569.736 638.874 570.909 639.215 571.912C639.578 572.893 640.133 573.651 640.879 574.184C641.626 574.717 642.575 574.984 643.727 574.984C644.879 574.984 645.829 574.717 646.575 574.184C647.322 573.651 647.866 572.893 648.207 571.912C648.57 570.909 648.751 569.736 648.751 568.392C648.751 567.027 648.57 565.864 648.207 564.904C647.845 563.944 647.29 563.208 646.543 562.696C645.818 562.163 644.869 561.896 643.695 561.896C641.946 561.896 640.677 562.472 639.887 563.624C639.098 564.776 638.703 566.365 638.703 568.392ZM670.014 552.744C669.929 553.811 669.662 554.707 669.214 555.432C668.788 556.157 668.148 556.701 667.294 557.064C666.441 557.427 665.332 557.608 663.966 557.608C662.58 557.608 661.46 557.427 660.606 557.064C659.774 556.701 659.166 556.168 658.782 555.464C658.398 554.739 658.164 553.832 658.078 552.744H660.702C660.809 553.896 661.108 554.675 661.598 555.08C662.11 555.464 662.921 555.656 664.03 555.656C665.012 555.656 665.78 555.453 666.334 555.048C666.91 554.621 667.252 553.853 667.358 552.744H670.014ZM658.782 570.312C658.782 570.504 658.772 570.781 658.75 571.144C658.75 571.485 658.74 571.859 658.718 572.264C658.697 572.648 658.676 573.021 658.654 573.384C658.633 573.725 658.612 574.003 658.59 574.216L667.774 559.848H671.23V577H668.606V566.888C668.606 566.547 668.606 566.099 668.606 565.544C668.628 564.989 668.649 564.445 668.67 563.912C668.692 563.357 668.713 562.941 668.734 562.664L659.614 577H656.126V559.848H658.782V570.312ZM296.851 621.392C296.851 622.821 296.659 624.091 296.275 625.2C295.912 626.288 295.379 627.216 294.675 627.984C293.992 628.752 293.149 629.339 292.147 629.744C291.165 630.128 290.067 630.32 288.851 630.32C287.72 630.32 286.675 630.128 285.715 629.744C284.755 629.339 283.923 628.752 283.219 627.984C282.515 627.216 281.96 626.288 281.555 625.2C281.171 624.091 280.979 622.821 280.979 621.392C280.979 619.493 281.299 617.893 281.939 616.592C282.579 615.269 283.496 614.267 284.691 613.584C285.885 612.88 287.304 612.528 288.947 612.528C290.504 612.528 291.869 612.88 293.043 613.584C294.237 614.267 295.165 615.269 295.827 616.592C296.509 617.893 296.851 619.493 296.851 621.392ZM283.891 621.392C283.891 622.736 284.061 623.909 284.403 624.912C284.765 625.893 285.32 626.651 286.067 627.184C286.813 627.717 287.763 627.984 288.915 627.984C290.067 627.984 291.016 627.717 291.763 627.184C292.509 626.651 293.053 625.893 293.395 624.912C293.757 623.909 293.939 622.736 293.939 621.392C293.939 620.027 293.757 618.864 293.395 617.904C293.032 616.944 292.477 616.208 291.731 615.696C291.005 615.163 290.056 614.896 288.883 614.896C287.133 614.896 285.864 615.472 285.075 616.624C284.285 617.776 283.891 619.365 283.891 621.392ZM309.474 612.528C311.586 612.528 313.282 613.264 314.562 614.736C315.863 616.208 316.514 618.427 316.514 621.392C316.514 623.333 316.215 624.976 315.618 626.32C315.042 627.643 314.22 628.645 313.154 629.328C312.108 629.989 310.871 630.32 309.442 630.32C308.567 630.32 307.788 630.203 307.106 629.968C306.423 629.733 305.836 629.435 305.346 629.072C304.876 628.688 304.471 628.272 304.13 627.824H303.938C303.98 628.187 304.023 628.645 304.066 629.2C304.108 629.755 304.13 630.235 304.13 630.64V637.68H301.314V612.848H303.618L304.002 615.184H304.13C304.471 614.693 304.876 614.245 305.346 613.84C305.836 613.435 306.412 613.115 307.074 612.88C307.756 612.645 308.556 612.528 309.474 612.528ZM308.962 614.896C307.81 614.896 306.882 615.12 306.178 615.568C305.474 615.995 304.962 616.645 304.642 617.52C304.322 618.395 304.151 619.504 304.13 620.848V621.392C304.13 622.8 304.279 623.995 304.578 624.976C304.876 625.957 305.378 626.704 306.082 627.216C306.807 627.728 307.788 627.984 309.026 627.984C310.071 627.984 310.924 627.696 311.586 627.12C312.268 626.544 312.77 625.765 313.09 624.784C313.431 623.781 313.602 622.64 313.602 621.36C313.602 619.397 313.218 617.829 312.45 616.656C311.703 615.483 310.54 614.896 308.962 614.896ZM323.657 623.312C323.657 623.504 323.647 623.781 323.625 624.144C323.625 624.485 323.615 624.859 323.593 625.264C323.572 625.648 323.551 626.021 323.529 626.384C323.508 626.725 323.487 627.003 323.465 627.216L332.649 612.848H336.105V630H333.481V619.888C333.481 619.547 333.481 619.099 333.481 618.544C333.503 617.989 333.524 617.445 333.545 616.912C333.567 616.357 333.588 615.941 333.609 615.664L324.489 630H321.001V612.848H323.657V623.312ZM348.188 612.528C349.66 612.528 350.918 612.848 351.964 613.488C353.03 614.128 353.841 615.035 354.396 616.208C354.972 617.36 355.26 618.715 355.26 620.272V621.968H343.516C343.558 623.909 344.049 625.392 344.988 626.416C345.948 627.419 347.281 627.92 348.988 627.92C350.076 627.92 351.036 627.824 351.868 627.632C352.721 627.419 353.596 627.12 354.492 626.736V629.2C353.617 629.584 352.753 629.861 351.9 630.032C351.046 630.224 350.033 630.32 348.86 630.32C347.238 630.32 345.798 629.989 344.54 629.328C343.302 628.667 342.332 627.685 341.628 626.384C340.945 625.061 340.604 623.451 340.604 621.552C340.604 619.675 340.913 618.064 341.532 616.72C342.172 615.376 343.057 614.341 344.188 613.616C345.34 612.891 346.673 612.528 348.188 612.528ZM348.156 614.832C346.812 614.832 345.745 615.269 344.956 616.144C344.188 616.997 343.729 618.192 343.58 619.728H352.316C352.316 618.747 352.166 617.893 351.868 617.168C351.569 616.443 351.11 615.877 350.492 615.472C349.894 615.045 349.116 614.832 348.156 614.832ZM362.442 612.848V619.984H371.754V612.848H374.57V630H371.754V622.352H362.442V630H359.626V612.848H362.442ZM391.841 615.216H386.241V630H383.457V615.216H377.921V612.848H391.841V615.216ZM401.716 612.56C403.807 612.56 405.353 613.019 406.356 613.936C407.359 614.853 407.86 616.315 407.86 618.32V630H405.812L405.268 627.568H405.14C404.649 628.187 404.137 628.709 403.604 629.136C403.092 629.541 402.495 629.84 401.812 630.032C401.151 630.224 400.34 630.32 399.38 630.32C398.356 630.32 397.428 630.139 396.596 629.776C395.785 629.413 395.145 628.859 394.676 628.112C394.207 627.344 393.972 626.384 393.972 625.232C393.972 623.525 394.644 622.213 395.988 621.296C397.332 620.357 399.401 619.845 402.196 619.76L405.108 619.664V618.64C405.108 617.211 404.799 616.219 404.18 615.664C403.561 615.109 402.687 614.832 401.556 614.832C400.66 614.832 399.807 614.971 398.996 615.248C398.185 615.504 397.428 615.803 396.724 616.144L395.86 614.032C396.607 613.627 397.492 613.285 398.516 613.008C399.54 612.709 400.607 612.56 401.716 612.56ZM402.548 621.712C400.415 621.797 398.932 622.139 398.1 622.736C397.289 623.333 396.884 624.176 396.884 625.264C396.884 626.224 397.172 626.928 397.748 627.376C398.345 627.824 399.103 628.048 400.02 628.048C401.471 628.048 402.676 627.653 403.636 626.864C404.596 626.053 405.076 624.816 405.076 623.152V621.616L402.548 621.712ZM430.086 635.952H427.333V630H413.158V612.848H415.974V627.632H424.838V612.848H427.654V627.664H430.086V635.952ZM436.032 623.312C436.032 623.504 436.022 623.781 436 624.144C436 624.485 435.99 624.859 435.968 625.264C435.947 625.648 435.926 626.021 435.904 626.384C435.883 626.725 435.862 627.003 435.84 627.216L445.024 612.848H448.48V630H445.856V619.888C445.856 619.547 445.856 619.099 445.856 618.544C445.878 617.989 445.899 617.445 445.92 616.912C445.942 616.357 445.963 615.941 445.984 615.664L436.864 630H433.376V612.848H436.032V623.312ZM456.595 623.312C456.595 623.504 456.584 623.781 456.563 624.144C456.563 624.485 456.552 624.859 456.531 625.264C456.509 625.648 456.488 626.021 456.467 626.384C456.445 626.725 456.424 627.003 456.403 627.216L465.587 612.848H469.043V630H466.419V619.888C466.419 619.547 466.419 619.099 466.419 618.544C466.44 617.989 466.461 617.445 466.483 616.912C466.504 616.357 466.525 615.941 466.547 615.664L457.427 630H453.939V612.848H456.595V623.312Z" fill="black"/>
</svg>
